<mxfile host="app.diagrams.net" modified="2024-05-03T20:53:28.541Z" agent="Mozilla/5.0 (Windows NT 10.0; Win64; x64) AppleWebKit/537.36 (KHTML, like Gecko) Chrome/122.0.0.0 YaBrowser/24.4.0.0 Safari/537.36" etag="Cy3TuAk07woNmNDysIaC" version="24.3.1" type="github">
  <diagram name="Страница — 1" id="ltwKN9lbTnuRCUI-QmUv">
    <mxGraphModel dx="1213" dy="1836" grid="0" gridSize="10" guides="1" tooltips="1" connect="1" arrows="1" fold="1" page="1" pageScale="1" pageWidth="827" pageHeight="1169" math="0" shadow="0">
      <root>
        <mxCell id="0" />
        <mxCell id="1" parent="0" />
        <mxCell id="Q2xC_4fxKE434t--dC2p-1" value="Сервер БД" style="swimlane;fontStyle=1;align=center;verticalAlign=top;childLayout=stackLayout;horizontal=1;startSize=26;horizontalStack=0;resizeParent=1;resizeParentMax=0;resizeLast=0;collapsible=1;marginBottom=0;whiteSpace=wrap;html=1;" parent="1" vertex="1">
          <mxGeometry x="359" y="229" width="160" height="34" as="geometry" />
        </mxCell>
        <mxCell id="Q2xC_4fxKE434t--dC2p-2" value="" style="line;strokeWidth=1;fillColor=none;align=left;verticalAlign=middle;spacingTop=-1;spacingLeft=3;spacingRight=3;rotatable=0;labelPosition=right;points=[];portConstraint=eastwest;strokeColor=inherit;" parent="Q2xC_4fxKE434t--dC2p-1" vertex="1">
          <mxGeometry y="26" width="160" height="8" as="geometry" />
        </mxCell>
        <mxCell id="Q2xC_4fxKE434t--dC2p-3" value="Корпус сервера БД" style="swimlane;fontStyle=1;align=center;verticalAlign=top;childLayout=stackLayout;horizontal=1;startSize=26;horizontalStack=0;resizeParent=1;resizeParentMax=0;resizeLast=0;collapsible=1;marginBottom=0;whiteSpace=wrap;html=1;" parent="1" vertex="1">
          <mxGeometry x="94" y="285" width="204" height="139" as="geometry" />
        </mxCell>
        <mxCell id="Q2xC_4fxKE434t--dC2p-4" value="+ Материал: пластик" style="text;strokeColor=none;fillColor=none;align=left;verticalAlign=top;spacingLeft=4;spacingRight=4;overflow=hidden;rotatable=0;points=[[0,0.5],[1,0.5]];portConstraint=eastwest;whiteSpace=wrap;html=1;" parent="Q2xC_4fxKE434t--dC2p-3" vertex="1">
          <mxGeometry y="26" width="204" height="26" as="geometry" />
        </mxCell>
        <mxCell id="Q2xC_4fxKE434t--dC2p-5" value="" style="line;strokeWidth=1;fillColor=none;align=left;verticalAlign=middle;spacingTop=-1;spacingLeft=3;spacingRight=3;rotatable=0;labelPosition=right;points=[];portConstraint=eastwest;strokeColor=inherit;" parent="Q2xC_4fxKE434t--dC2p-3" vertex="1">
          <mxGeometry y="52" width="204" height="8" as="geometry" />
        </mxCell>
        <mxCell id="Q2xC_4fxKE434t--dC2p-6" value="+ Защита компонентов устройства()&lt;div&gt;+ Содержание компонентов в своем объеме()&lt;/div&gt;" style="text;strokeColor=none;fillColor=none;align=left;verticalAlign=top;spacingLeft=4;spacingRight=4;overflow=hidden;rotatable=0;points=[[0,0.5],[1,0.5]];portConstraint=eastwest;whiteSpace=wrap;html=1;" parent="Q2xC_4fxKE434t--dC2p-3" vertex="1">
          <mxGeometry y="60" width="204" height="79" as="geometry" />
        </mxCell>
        <mxCell id="Q2xC_4fxKE434t--dC2p-7" value="Материнская плата сервера БД" style="swimlane;fontStyle=1;align=center;verticalAlign=top;childLayout=stackLayout;horizontal=1;startSize=26;horizontalStack=0;resizeParent=1;resizeParentMax=0;resizeLast=0;collapsible=1;marginBottom=0;whiteSpace=wrap;html=1;" parent="1" vertex="1">
          <mxGeometry x="352" y="91" width="252" height="86" as="geometry" />
        </mxCell>
        <mxCell id="Q2xC_4fxKE434t--dC2p-8" value="&lt;span style=&quot;background-color: rgb(255, 255, 255);&quot;&gt;&lt;font style=&quot;font-size: 12px;&quot;&gt;+&amp;nbsp;&lt;span style=&quot;font-family: Inter, -apple-system, BlinkMacSystemFont, &amp;quot;Segoe UI&amp;quot;, Roboto, Helvetica, Arial, sans-serif, &amp;quot;Apple Color Emoji&amp;quot;, &amp;quot;Segoe UI Emoji&amp;quot;, &amp;quot;Segoe UI Symbol&amp;quot;; white-space-collapse: preserve;&quot;&gt;Supermicro X10DRi&lt;/span&gt;&lt;/font&gt;&lt;/span&gt;&lt;div style=&quot;&quot;&gt;&lt;span style=&quot;background-color: rgb(255, 255, 255);&quot;&gt;&lt;span style=&quot;font-family: Inter, -apple-system, BlinkMacSystemFont, &amp;quot;Segoe UI&amp;quot;, Roboto, Helvetica, Arial, sans-serif, &amp;quot;Apple Color Emoji&amp;quot;, &amp;quot;Segoe UI Emoji&amp;quot;, &amp;quot;Segoe UI Symbol&amp;quot;; font-size: 16px; white-space-collapse: preserve;&quot;&gt;&lt;br&gt;&lt;/span&gt;&lt;/span&gt;&lt;/div&gt;" style="text;strokeColor=none;fillColor=none;align=left;verticalAlign=top;spacingLeft=4;spacingRight=4;overflow=hidden;rotatable=0;points=[[0,0.5],[1,0.5]];portConstraint=eastwest;whiteSpace=wrap;html=1;" parent="Q2xC_4fxKE434t--dC2p-7" vertex="1">
          <mxGeometry y="26" width="252" height="26" as="geometry" />
        </mxCell>
        <mxCell id="Q2xC_4fxKE434t--dC2p-9" value="" style="line;strokeWidth=1;fillColor=none;align=left;verticalAlign=middle;spacingTop=-1;spacingLeft=3;spacingRight=3;rotatable=0;labelPosition=right;points=[];portConstraint=eastwest;strokeColor=inherit;" parent="Q2xC_4fxKE434t--dC2p-7" vertex="1">
          <mxGeometry y="52" width="252" height="8" as="geometry" />
        </mxCell>
        <mxCell id="Q2xC_4fxKE434t--dC2p-10" value="+ Связывание компонентов устройства()" style="text;strokeColor=none;fillColor=none;align=left;verticalAlign=top;spacingLeft=4;spacingRight=4;overflow=hidden;rotatable=0;points=[[0,0.5],[1,0.5]];portConstraint=eastwest;whiteSpace=wrap;html=1;" parent="Q2xC_4fxKE434t--dC2p-7" vertex="1">
          <mxGeometry y="60" width="252" height="26" as="geometry" />
        </mxCell>
        <mxCell id="Q2xC_4fxKE434t--dC2p-11" value="Процессор сервера БД" style="swimlane;fontStyle=1;align=center;verticalAlign=top;childLayout=stackLayout;horizontal=1;startSize=26;horizontalStack=0;resizeParent=1;resizeParentMax=0;resizeLast=0;collapsible=1;marginBottom=0;whiteSpace=wrap;html=1;" parent="1" vertex="1">
          <mxGeometry x="32" y="-145" width="232" height="109" as="geometry" />
        </mxCell>
        <mxCell id="Q2xC_4fxKE434t--dC2p-12" value="+ Intel Xeon E5-2620 v4, 2&lt;div&gt;+ Тактовая частота: 2.1Ghz&lt;/div&gt;" style="text;strokeColor=none;fillColor=none;align=left;verticalAlign=top;spacingLeft=4;spacingRight=4;overflow=hidden;rotatable=0;points=[[0,0.5],[1,0.5]];portConstraint=eastwest;whiteSpace=wrap;html=1;" parent="Q2xC_4fxKE434t--dC2p-11" vertex="1">
          <mxGeometry y="26" width="232" height="49" as="geometry" />
        </mxCell>
        <mxCell id="Q2xC_4fxKE434t--dC2p-13" value="" style="line;strokeWidth=1;fillColor=none;align=left;verticalAlign=middle;spacingTop=-1;spacingLeft=3;spacingRight=3;rotatable=0;labelPosition=right;points=[];portConstraint=eastwest;strokeColor=inherit;" parent="Q2xC_4fxKE434t--dC2p-11" vertex="1">
          <mxGeometry y="75" width="232" height="8" as="geometry" />
        </mxCell>
        <mxCell id="Q2xC_4fxKE434t--dC2p-14" value="+ Обработка информации()" style="text;strokeColor=none;fillColor=none;align=left;verticalAlign=top;spacingLeft=4;spacingRight=4;overflow=hidden;rotatable=0;points=[[0,0.5],[1,0.5]];portConstraint=eastwest;whiteSpace=wrap;html=1;" parent="Q2xC_4fxKE434t--dC2p-11" vertex="1">
          <mxGeometry y="83" width="232" height="26" as="geometry" />
        </mxCell>
        <mxCell id="Q2xC_4fxKE434t--dC2p-15" value="ОЗУ сервера БД" style="swimlane;fontStyle=1;align=center;verticalAlign=top;childLayout=stackLayout;horizontal=1;startSize=26;horizontalStack=0;resizeParent=1;resizeParentMax=0;resizeLast=0;collapsible=1;marginBottom=0;whiteSpace=wrap;html=1;" parent="1" vertex="1">
          <mxGeometry x="362" y="-145" width="245" height="99" as="geometry" />
        </mxCell>
        <mxCell id="Q2xC_4fxKE434t--dC2p-16" value="+ 32ГБ DDR4, Kingston" style="text;strokeColor=none;fillColor=none;align=left;verticalAlign=top;spacingLeft=4;spacingRight=4;overflow=hidden;rotatable=0;points=[[0,0.5],[1,0.5]];portConstraint=eastwest;whiteSpace=wrap;html=1;" parent="Q2xC_4fxKE434t--dC2p-15" vertex="1">
          <mxGeometry y="26" width="245" height="26" as="geometry" />
        </mxCell>
        <mxCell id="Q2xC_4fxKE434t--dC2p-17" value="" style="line;strokeWidth=1;fillColor=none;align=left;verticalAlign=middle;spacingTop=-1;spacingLeft=3;spacingRight=3;rotatable=0;labelPosition=right;points=[];portConstraint=eastwest;strokeColor=inherit;" parent="Q2xC_4fxKE434t--dC2p-15" vertex="1">
          <mxGeometry y="52" width="245" height="8" as="geometry" />
        </mxCell>
        <mxCell id="Q2xC_4fxKE434t--dC2p-18" value="+ Хранение информации, требующей быстрый доступ()" style="text;strokeColor=none;fillColor=none;align=left;verticalAlign=top;spacingLeft=4;spacingRight=4;overflow=hidden;rotatable=0;points=[[0,0.5],[1,0.5]];portConstraint=eastwest;whiteSpace=wrap;html=1;" parent="Q2xC_4fxKE434t--dC2p-15" vertex="1">
          <mxGeometry y="60" width="245" height="39" as="geometry" />
        </mxCell>
        <mxCell id="Q2xC_4fxKE434t--dC2p-19" value="Жесткий диск" style="swimlane;fontStyle=1;align=center;verticalAlign=top;childLayout=stackLayout;horizontal=1;startSize=26;horizontalStack=0;resizeParent=1;resizeParentMax=0;resizeLast=0;collapsible=1;marginBottom=0;whiteSpace=wrap;html=1;" parent="1" vertex="1">
          <mxGeometry x="794" y="-127" width="233" height="101" as="geometry" />
        </mxCell>
        <mxCell id="Q2xC_4fxKE434t--dC2p-20" value="+ 4ТБ, Seagate, Skyhawk" style="text;strokeColor=none;fillColor=none;align=left;verticalAlign=top;spacingLeft=4;spacingRight=4;overflow=hidden;rotatable=0;points=[[0,0.5],[1,0.5]];portConstraint=eastwest;whiteSpace=wrap;html=1;" parent="Q2xC_4fxKE434t--dC2p-19" vertex="1">
          <mxGeometry y="26" width="233" height="26" as="geometry" />
        </mxCell>
        <mxCell id="Q2xC_4fxKE434t--dC2p-21" value="" style="line;strokeWidth=1;fillColor=none;align=left;verticalAlign=middle;spacingTop=-1;spacingLeft=3;spacingRight=3;rotatable=0;labelPosition=right;points=[];portConstraint=eastwest;strokeColor=inherit;" parent="Q2xC_4fxKE434t--dC2p-19" vertex="1">
          <mxGeometry y="52" width="233" height="8" as="geometry" />
        </mxCell>
        <mxCell id="Q2xC_4fxKE434t--dC2p-22" value="+ Долгосрочное хранение информации()" style="text;strokeColor=none;fillColor=none;align=left;verticalAlign=top;spacingLeft=4;spacingRight=4;overflow=hidden;rotatable=0;points=[[0,0.5],[1,0.5]];portConstraint=eastwest;whiteSpace=wrap;html=1;" parent="Q2xC_4fxKE434t--dC2p-19" vertex="1">
          <mxGeometry y="60" width="233" height="41" as="geometry" />
        </mxCell>
        <mxCell id="Q2xC_4fxKE434t--dC2p-23" value="Сетевой адаптер сервера БД" style="swimlane;fontStyle=1;align=center;verticalAlign=top;childLayout=stackLayout;horizontal=1;startSize=26;horizontalStack=0;resizeParent=1;resizeParentMax=0;resizeLast=0;collapsible=1;marginBottom=0;whiteSpace=wrap;html=1;" parent="1" vertex="1">
          <mxGeometry x="20" y="49" width="235" height="93" as="geometry" />
        </mxCell>
        <mxCell id="Q2xC_4fxKE434t--dC2p-24" value="+ Gigabit Ethernet" style="text;strokeColor=none;fillColor=none;align=left;verticalAlign=top;spacingLeft=4;spacingRight=4;overflow=hidden;rotatable=0;points=[[0,0.5],[1,0.5]];portConstraint=eastwest;whiteSpace=wrap;html=1;" parent="Q2xC_4fxKE434t--dC2p-23" vertex="1">
          <mxGeometry y="26" width="235" height="33" as="geometry" />
        </mxCell>
        <mxCell id="Q2xC_4fxKE434t--dC2p-25" value="" style="line;strokeWidth=1;fillColor=none;align=left;verticalAlign=middle;spacingTop=-1;spacingLeft=3;spacingRight=3;rotatable=0;labelPosition=right;points=[];portConstraint=eastwest;strokeColor=inherit;" parent="Q2xC_4fxKE434t--dC2p-23" vertex="1">
          <mxGeometry y="59" width="235" height="8" as="geometry" />
        </mxCell>
        <mxCell id="Q2xC_4fxKE434t--dC2p-26" value="+ Передача данных()" style="text;strokeColor=none;fillColor=none;align=left;verticalAlign=top;spacingLeft=4;spacingRight=4;overflow=hidden;rotatable=0;points=[[0,0.5],[1,0.5]];portConstraint=eastwest;whiteSpace=wrap;html=1;" parent="Q2xC_4fxKE434t--dC2p-23" vertex="1">
          <mxGeometry y="67" width="235" height="26" as="geometry" />
        </mxCell>
        <mxCell id="Q2xC_4fxKE434t--dC2p-27" value="Системное ПО сервера БД" style="swimlane;fontStyle=1;align=center;verticalAlign=top;childLayout=stackLayout;horizontal=1;startSize=26;horizontalStack=0;resizeParent=1;resizeParentMax=0;resizeLast=0;collapsible=1;marginBottom=0;whiteSpace=wrap;html=1;" parent="1" vertex="1">
          <mxGeometry x="676" y="40" width="237" height="34" as="geometry" />
        </mxCell>
        <mxCell id="Q2xC_4fxKE434t--dC2p-28" value="" style="line;strokeWidth=1;fillColor=none;align=left;verticalAlign=middle;spacingTop=-1;spacingLeft=3;spacingRight=3;rotatable=0;labelPosition=right;points=[];portConstraint=eastwest;strokeColor=inherit;" parent="Q2xC_4fxKE434t--dC2p-27" vertex="1">
          <mxGeometry y="26" width="237" height="8" as="geometry" />
        </mxCell>
        <mxCell id="Q2xC_4fxKE434t--dC2p-29" value="Прикладное ПО сервера БД" style="swimlane;fontStyle=1;align=center;verticalAlign=top;childLayout=stackLayout;horizontal=1;startSize=26;horizontalStack=0;resizeParent=1;resizeParentMax=0;resizeLast=0;collapsible=1;marginBottom=0;whiteSpace=wrap;html=1;" parent="1" vertex="1">
          <mxGeometry x="950" y="42" width="237" height="34" as="geometry" />
        </mxCell>
        <mxCell id="Q2xC_4fxKE434t--dC2p-30" value="" style="line;strokeWidth=1;fillColor=none;align=left;verticalAlign=middle;spacingTop=-1;spacingLeft=3;spacingRight=3;rotatable=0;labelPosition=right;points=[];portConstraint=eastwest;strokeColor=inherit;" parent="Q2xC_4fxKE434t--dC2p-29" vertex="1">
          <mxGeometry y="26" width="237" height="8" as="geometry" />
        </mxCell>
        <mxCell id="Q2xC_4fxKE434t--dC2p-31" value="ОС сервера БД" style="swimlane;fontStyle=1;align=center;verticalAlign=top;childLayout=stackLayout;horizontal=1;startSize=26;horizontalStack=0;resizeParent=1;resizeParentMax=0;resizeLast=0;collapsible=1;marginBottom=0;whiteSpace=wrap;html=1;" parent="1" vertex="1">
          <mxGeometry x="670" y="143" width="219" height="102" as="geometry" />
        </mxCell>
        <mxCell id="Q2xC_4fxKE434t--dC2p-32" value="+ Ubuntu 22.04" style="text;strokeColor=none;fillColor=none;align=left;verticalAlign=top;spacingLeft=4;spacingRight=4;overflow=hidden;rotatable=0;points=[[0,0.5],[1,0.5]];portConstraint=eastwest;whiteSpace=wrap;html=1;" parent="Q2xC_4fxKE434t--dC2p-31" vertex="1">
          <mxGeometry y="26" width="219" height="26" as="geometry" />
        </mxCell>
        <mxCell id="Q2xC_4fxKE434t--dC2p-33" value="" style="line;strokeWidth=1;fillColor=none;align=left;verticalAlign=middle;spacingTop=-1;spacingLeft=3;spacingRight=3;rotatable=0;labelPosition=right;points=[];portConstraint=eastwest;strokeColor=inherit;" parent="Q2xC_4fxKE434t--dC2p-31" vertex="1">
          <mxGeometry y="52" width="219" height="8" as="geometry" />
        </mxCell>
        <mxCell id="Q2xC_4fxKE434t--dC2p-34" value="+ Обеспечение связной работы компонентов()" style="text;strokeColor=none;fillColor=none;align=left;verticalAlign=top;spacingLeft=4;spacingRight=4;overflow=hidden;rotatable=0;points=[[0,0.5],[1,0.5]];portConstraint=eastwest;whiteSpace=wrap;html=1;" parent="Q2xC_4fxKE434t--dC2p-31" vertex="1">
          <mxGeometry y="60" width="219" height="42" as="geometry" />
        </mxCell>
        <mxCell id="Q2xC_4fxKE434t--dC2p-35" value="СУБД" style="swimlane;fontStyle=1;align=center;verticalAlign=top;childLayout=stackLayout;horizontal=1;startSize=26;horizontalStack=0;resizeParent=1;resizeParentMax=0;resizeLast=0;collapsible=1;marginBottom=0;whiteSpace=wrap;html=1;" parent="1" vertex="1">
          <mxGeometry x="947" y="159" width="269" height="99" as="geometry" />
        </mxCell>
        <mxCell id="Q2xC_4fxKE434t--dC2p-36" value="+ PostgreSQL" style="text;strokeColor=none;fillColor=none;align=left;verticalAlign=top;spacingLeft=4;spacingRight=4;overflow=hidden;rotatable=0;points=[[0,0.5],[1,0.5]];portConstraint=eastwest;whiteSpace=wrap;html=1;" parent="Q2xC_4fxKE434t--dC2p-35" vertex="1">
          <mxGeometry y="26" width="269" height="32" as="geometry" />
        </mxCell>
        <mxCell id="Q2xC_4fxKE434t--dC2p-37" value="" style="line;strokeWidth=1;fillColor=none;align=left;verticalAlign=middle;spacingTop=-1;spacingLeft=3;spacingRight=3;rotatable=0;labelPosition=right;points=[];portConstraint=eastwest;strokeColor=inherit;" parent="Q2xC_4fxKE434t--dC2p-35" vertex="1">
          <mxGeometry y="58" width="269" height="8" as="geometry" />
        </mxCell>
        <mxCell id="Q2xC_4fxKE434t--dC2p-38" value="&lt;div&gt;+ Обеспечение CRUD операция с БД()&lt;/div&gt;" style="text;strokeColor=none;fillColor=none;align=left;verticalAlign=top;spacingLeft=4;spacingRight=4;overflow=hidden;rotatable=0;points=[[0,0.5],[1,0.5]];portConstraint=eastwest;whiteSpace=wrap;html=1;" parent="Q2xC_4fxKE434t--dC2p-35" vertex="1">
          <mxGeometry y="66" width="269" height="33" as="geometry" />
        </mxCell>
        <mxCell id="Q2xC_4fxKE434t--dC2p-39" value="" style="endArrow=diamondThin;endFill=0;endSize=12;html=1;rounded=0;exitX=0.519;exitY=0.005;exitDx=0;exitDy=0;exitPerimeter=0;" parent="1" source="Q2xC_4fxKE434t--dC2p-3" edge="1">
          <mxGeometry width="160" relative="1" as="geometry">
            <mxPoint x="200" y="280" as="sourcePoint" />
            <mxPoint x="359" y="248" as="targetPoint" />
            <Array as="points">
              <mxPoint x="200" y="250" />
            </Array>
          </mxGeometry>
        </mxCell>
        <mxCell id="Q2xC_4fxKE434t--dC2p-40" value="" style="endArrow=diamondThin;endFill=0;endSize=12;html=1;rounded=0;exitX=0.346;exitY=1.016;exitDx=0;exitDy=0;exitPerimeter=0;entryX=0.5;entryY=0;entryDx=0;entryDy=0;" parent="1" source="Q2xC_4fxKE434t--dC2p-10" target="Q2xC_4fxKE434t--dC2p-1" edge="1">
          <mxGeometry width="160" relative="1" as="geometry">
            <mxPoint x="190" y="213" as="sourcePoint" />
            <mxPoint x="349" y="175" as="targetPoint" />
            <Array as="points">
              <mxPoint x="439" y="190" />
            </Array>
          </mxGeometry>
        </mxCell>
        <mxCell id="Q2xC_4fxKE434t--dC2p-41" value="" style="endArrow=diamondThin;endFill=0;endSize=12;html=1;rounded=0;exitX=0.999;exitY=0.152;exitDx=0;exitDy=0;exitPerimeter=0;entryX=0.003;entryY=0.121;entryDx=0;entryDy=0;entryPerimeter=0;" parent="1" source="Q2xC_4fxKE434t--dC2p-26" target="Q2xC_4fxKE434t--dC2p-8" edge="1">
          <mxGeometry width="160" relative="1" as="geometry">
            <mxPoint x="310" y="107" as="sourcePoint" />
            <mxPoint x="350" y="120" as="targetPoint" />
            <Array as="points">
              <mxPoint x="310" y="120" />
            </Array>
          </mxGeometry>
        </mxCell>
        <mxCell id="Q2xC_4fxKE434t--dC2p-42" value="" style="endArrow=diamondThin;endFill=0;endSize=12;html=1;rounded=0;exitX=0.346;exitY=1.016;exitDx=0;exitDy=0;exitPerimeter=0;" parent="1" edge="1">
          <mxGeometry width="160" relative="1" as="geometry">
            <mxPoint x="460" y="-46" as="sourcePoint" />
            <mxPoint x="460" y="90" as="targetPoint" />
            <Array as="points">
              <mxPoint x="460" y="-33" />
            </Array>
          </mxGeometry>
        </mxCell>
        <mxCell id="Q2xC_4fxKE434t--dC2p-43" value="" style="endArrow=diamondThin;endFill=0;endSize=12;html=1;rounded=0;exitX=1.004;exitY=0.783;exitDx=0;exitDy=0;exitPerimeter=0;" parent="1" source="Q2xC_4fxKE434t--dC2p-12" edge="1">
          <mxGeometry width="160" relative="1" as="geometry">
            <mxPoint x="320" y="-78" as="sourcePoint" />
            <mxPoint x="400" y="90" as="targetPoint" />
            <Array as="points">
              <mxPoint x="320" y="-65" />
            </Array>
          </mxGeometry>
        </mxCell>
        <mxCell id="Q2xC_4fxKE434t--dC2p-44" value="" style="endArrow=diamondThin;endFill=0;endSize=12;html=1;rounded=0;exitX=0.004;exitY=0.903;exitDx=0;exitDy=0;exitPerimeter=0;" parent="1" source="Q2xC_4fxKE434t--dC2p-20" edge="1">
          <mxGeometry width="160" relative="1" as="geometry">
            <mxPoint x="790" y="-70" as="sourcePoint" />
            <mxPoint x="540" y="90" as="targetPoint" />
            <Array as="points">
              <mxPoint x="650" y="-7" />
            </Array>
          </mxGeometry>
        </mxCell>
        <mxCell id="Q2xC_4fxKE434t--dC2p-45" value="" style="endArrow=diamondThin;endFill=0;endSize=12;html=1;rounded=0;entryX=0.138;entryY=0.993;entryDx=0;entryDy=0;entryPerimeter=0;" parent="1" target="Q2xC_4fxKE434t--dC2p-22" edge="1">
          <mxGeometry width="160" relative="1" as="geometry">
            <mxPoint x="826" y="40" as="sourcePoint" />
            <mxPoint x="760" y="26" as="targetPoint" />
            <Array as="points">
              <mxPoint x="826" y="10" />
            </Array>
          </mxGeometry>
        </mxCell>
        <mxCell id="Q2xC_4fxKE434t--dC2p-46" value="" style="endArrow=diamondThin;endFill=0;endSize=12;html=1;rounded=0;entryX=0.138;entryY=0.993;entryDx=0;entryDy=0;entryPerimeter=0;exitX=0.169;exitY=0.014;exitDx=0;exitDy=0;exitPerimeter=0;" parent="1" source="Q2xC_4fxKE434t--dC2p-29" edge="1">
          <mxGeometry width="160" relative="1" as="geometry">
            <mxPoint x="990" y="40" as="sourcePoint" />
            <mxPoint x="990" y="-26" as="targetPoint" />
            <Array as="points">
              <mxPoint x="990" y="10" />
            </Array>
          </mxGeometry>
        </mxCell>
        <mxCell id="Q2xC_4fxKE434t--dC2p-47" value="" style="endArrow=diamondThin;endFill=0;endSize=12;html=1;rounded=0;entryX=0.5;entryY=1;entryDx=0;entryDy=0;" parent="1" target="Q2xC_4fxKE434t--dC2p-27" edge="1">
          <mxGeometry width="160" relative="1" as="geometry">
            <mxPoint x="794.07" y="143" as="sourcePoint" />
            <mxPoint x="794.07" y="77" as="targetPoint" />
            <Array as="points">
              <mxPoint x="794.07" y="113" />
            </Array>
          </mxGeometry>
        </mxCell>
        <mxCell id="Q2xC_4fxKE434t--dC2p-48" value="" style="endArrow=diamondThin;endFill=0;endSize=12;html=1;rounded=0;exitX=0.346;exitY=-0.004;exitDx=0;exitDy=0;exitPerimeter=0;" parent="1" source="Q2xC_4fxKE434t--dC2p-35" edge="1">
          <mxGeometry width="160" relative="1" as="geometry">
            <mxPoint x="1040" y="156" as="sourcePoint" />
            <mxPoint x="1040" y="76" as="targetPoint" />
            <Array as="points">
              <mxPoint x="1040" y="125" />
            </Array>
          </mxGeometry>
        </mxCell>
        <mxCell id="Q2xC_4fxKE434t--dC2p-49" value="БУП сервера БД" style="swimlane;fontStyle=1;align=center;verticalAlign=top;childLayout=stackLayout;horizontal=1;startSize=26;horizontalStack=0;resizeParent=1;resizeParentMax=0;resizeLast=0;collapsible=1;marginBottom=0;whiteSpace=wrap;html=1;" parent="1" vertex="1">
          <mxGeometry x="430" y="350" width="200" height="160" as="geometry" />
        </mxCell>
        <mxCell id="Q2xC_4fxKE434t--dC2p-50" value="+ Номинальная мощность: 920ВТ&lt;div&gt;+ Стандарт эффективности: 80PLUS Platinum&lt;/div&gt;" style="text;strokeColor=none;fillColor=none;align=left;verticalAlign=top;spacingLeft=4;spacingRight=4;overflow=hidden;rotatable=0;points=[[0,0.5],[1,0.5]];portConstraint=eastwest;whiteSpace=wrap;html=1;" parent="Q2xC_4fxKE434t--dC2p-49" vertex="1">
          <mxGeometry y="26" width="200" height="54" as="geometry" />
        </mxCell>
        <mxCell id="Q2xC_4fxKE434t--dC2p-51" value="" style="line;strokeWidth=1;fillColor=none;align=left;verticalAlign=middle;spacingTop=-1;spacingLeft=3;spacingRight=3;rotatable=0;labelPosition=right;points=[];portConstraint=eastwest;strokeColor=inherit;" parent="Q2xC_4fxKE434t--dC2p-49" vertex="1">
          <mxGeometry y="80" width="200" height="8" as="geometry" />
        </mxCell>
        <mxCell id="Q2xC_4fxKE434t--dC2p-52" value="+ Подача питания на все компоненты сервера()&lt;div&gt;+ Недопущение перегорания компонентов сервера()&lt;/div&gt;" style="text;strokeColor=none;fillColor=none;align=left;verticalAlign=top;spacingLeft=4;spacingRight=4;overflow=hidden;rotatable=0;points=[[0,0.5],[1,0.5]];portConstraint=eastwest;whiteSpace=wrap;html=1;" parent="Q2xC_4fxKE434t--dC2p-49" vertex="1">
          <mxGeometry y="88" width="200" height="72" as="geometry" />
        </mxCell>
        <mxCell id="Q2xC_4fxKE434t--dC2p-53" value="" style="endArrow=diamondThin;endFill=0;endSize=12;html=1;rounded=0;entryX=0.5;entryY=1;entryDx=0;entryDy=0;exitX=0.27;exitY=0.009;exitDx=0;exitDy=0;exitPerimeter=0;" parent="1" source="Q2xC_4fxKE434t--dC2p-49" edge="1">
          <mxGeometry width="160" relative="1" as="geometry">
            <mxPoint x="484.03000000000003" y="332" as="sourcePoint" />
            <mxPoint x="484.96" y="263" as="targetPoint" />
            <Array as="points">
              <mxPoint x="484.03000000000003" y="302" />
            </Array>
          </mxGeometry>
        </mxCell>
        <mxCell id="Q2xC_4fxKE434t--dC2p-54" value="БД" style="swimlane;fontStyle=1;align=center;verticalAlign=top;childLayout=stackLayout;horizontal=1;startSize=26;horizontalStack=0;resizeParent=1;resizeParentMax=0;resizeLast=0;collapsible=1;marginBottom=0;whiteSpace=wrap;html=1;" parent="1" vertex="1">
          <mxGeometry x="993" y="317" width="160" height="60" as="geometry" />
        </mxCell>
        <mxCell id="Q2xC_4fxKE434t--dC2p-56" value="" style="line;strokeWidth=1;fillColor=none;align=left;verticalAlign=middle;spacingTop=-1;spacingLeft=3;spacingRight=3;rotatable=0;labelPosition=right;points=[];portConstraint=eastwest;strokeColor=inherit;" parent="Q2xC_4fxKE434t--dC2p-54" vertex="1">
          <mxGeometry y="26" width="160" height="8" as="geometry" />
        </mxCell>
        <mxCell id="Q2xC_4fxKE434t--dC2p-57" value="+ Сохранение данных()" style="text;strokeColor=none;fillColor=none;align=left;verticalAlign=top;spacingLeft=4;spacingRight=4;overflow=hidden;rotatable=0;points=[[0,0.5],[1,0.5]];portConstraint=eastwest;whiteSpace=wrap;html=1;" parent="Q2xC_4fxKE434t--dC2p-54" vertex="1">
          <mxGeometry y="34" width="160" height="26" as="geometry" />
        </mxCell>
        <mxCell id="Q2xC_4fxKE434t--dC2p-58" value="" style="endArrow=diamondThin;endFill=0;endSize=12;html=1;rounded=0;entryX=0.5;entryY=1;entryDx=0;entryDy=0;" parent="1" edge="1">
          <mxGeometry width="160" relative="1" as="geometry">
            <mxPoint x="1082" y="317" as="sourcePoint" />
            <mxPoint x="1081.97" y="258" as="targetPoint" />
            <Array as="points">
              <mxPoint x="1081.04" y="297" />
            </Array>
          </mxGeometry>
        </mxCell>
        <mxCell id="0-5vWnnyPQfRnAPLTzSd-1" value="Кондиционер сервера БД" style="swimlane;fontStyle=1;align=center;verticalAlign=top;childLayout=stackLayout;horizontal=1;startSize=26;horizontalStack=0;resizeParent=1;resizeParentMax=0;resizeLast=0;collapsible=1;marginBottom=0;whiteSpace=wrap;html=1;" vertex="1" parent="1">
          <mxGeometry x="670" y="328" width="206" height="115" as="geometry" />
        </mxCell>
        <mxCell id="0-5vWnnyPQfRnAPLTzSd-2" value="+ Охлаждаемая площадь помещения: 30м^2&lt;div&gt;+ TCL ELI INV&lt;/div&gt;" style="text;strokeColor=none;fillColor=none;align=left;verticalAlign=top;spacingLeft=4;spacingRight=4;overflow=hidden;rotatable=0;points=[[0,0.5],[1,0.5]];portConstraint=eastwest;whiteSpace=wrap;html=1;" vertex="1" parent="0-5vWnnyPQfRnAPLTzSd-1">
          <mxGeometry y="26" width="206" height="55" as="geometry" />
        </mxCell>
        <mxCell id="0-5vWnnyPQfRnAPLTzSd-3" value="" style="line;strokeWidth=1;fillColor=none;align=left;verticalAlign=middle;spacingTop=-1;spacingLeft=3;spacingRight=3;rotatable=0;labelPosition=right;points=[];portConstraint=eastwest;strokeColor=inherit;" vertex="1" parent="0-5vWnnyPQfRnAPLTzSd-1">
          <mxGeometry y="81" width="206" height="8" as="geometry" />
        </mxCell>
        <mxCell id="0-5vWnnyPQfRnAPLTzSd-4" value="+ Охлаждение сервера()" style="text;strokeColor=none;fillColor=none;align=left;verticalAlign=top;spacingLeft=4;spacingRight=4;overflow=hidden;rotatable=0;points=[[0,0.5],[1,0.5]];portConstraint=eastwest;whiteSpace=wrap;html=1;" vertex="1" parent="0-5vWnnyPQfRnAPLTzSd-1">
          <mxGeometry y="89" width="206" height="26" as="geometry" />
        </mxCell>
        <mxCell id="0-5vWnnyPQfRnAPLTzSd-5" value="" style="endArrow=diamondThin;endFill=0;endSize=12;html=1;rounded=0;entryX=1;entryY=0.5;entryDx=0;entryDy=0;exitX=0.5;exitY=0;exitDx=0;exitDy=0;" edge="1" parent="1" source="0-5vWnnyPQfRnAPLTzSd-1" target="Q2xC_4fxKE434t--dC2p-1">
          <mxGeometry width="160" relative="1" as="geometry">
            <mxPoint x="629.04" y="340" as="sourcePoint" />
            <mxPoint x="630" y="252" as="targetPoint" />
            <Array as="points">
              <mxPoint x="635" y="279" />
            </Array>
          </mxGeometry>
        </mxCell>
      </root>
    </mxGraphModel>
  </diagram>
</mxfile>
